<?xml version="1.0" standalone="no"?>
<!DOCTYPE svg PUBLIC "-//W3C//DTD SVG 20010904//EN"
 "http://www.w3.org/TR/2001/REC-SVG-20010904/DTD/svg10.dtd">
<svg version="1.0" xmlns="http://www.w3.org/2000/svg"
 width="454.000000pt" height="454.000000pt" viewBox="0 0 454.000000 454.000000"
 preserveAspectRatio="xMidYMid meet">
<metadata>
Created by potrace 1.14, written by Peter Selinger 2001-2017
</metadata>
<g transform="translate(0.000000,454.000000) scale(0.100000,-0.100000)"
fill="#000000" stroke="none">
<path d="M2303 4524 c4 -4 35 -8 69 -10 47 -2 55 -1 33 5 -37 10 -111 13 -102
5z"/>
<path d="M2470 4510 c8 -5 26 -9 40 -9 l25 1 -25 8 c-14 4 -32 8 -40 9 -13 1
-13 0 0 -9z"/>
<path d="M2545 4500 c3 -5 16 -10 28 -10 18 0 19 2 7 10 -20 13 -43 13 -35 0z"/>
<path d="M2610 4490 c8 -5 22 -10 30 -10 13 0 13 1 0 10 -8 5 -22 10 -30 10
-13 0 -13 -1 0 -10z"/>
<path d="M2670 4480 c8 -5 20 -10 25 -10 6 0 3 5 -5 10 -8 5 -19 10 -25 10 -5
0 -3 -5 5 -10z"/>
<path d="M2720 4470 c8 -5 20 -10 25 -10 6 0 3 5 -5 10 -8 5 -19 10 -25 10 -5
0 -3 -5 5 -10z"/>
<path d="M2283 4463 c9 -2 23 -2 30 0 6 3 -1 5 -18 5 -16 0 -22 -2 -12 -5z"/>
<path d="M2760 4460 c0 -6 7 -10 15 -10 8 0 15 2 15 4 0 2 -7 6 -15 10 -8 3
-15 1 -15 -4z"/>
<path d="M2800 4450 c0 -5 7 -10 16 -10 8 0 12 5 9 10 -3 6 -10 10 -16 10 -5
0 -9 -4 -9 -10z"/>
<path d="M2363 4443 c9 -2 25 -2 35 0 9 3 1 5 -18 5 -19 0 -27 -2 -17 -5z"/>
<path d="M2840 4440 c0 -5 5 -10 11 -10 5 0 7 5 4 10 -3 6 -8 10 -11 10 -2 0
-4 -4 -4 -10z"/>
<path d="M2875 4430 c3 -5 11 -10 16 -10 6 0 7 5 4 10 -3 6 -11 10 -16 10 -6
0 -7 -4 -4 -10z"/>
<path d="M2910 4420 c0 -5 5 -10 11 -10 5 0 7 5 4 10 -3 6 -8 10 -11 10 -2 0
-4 -4 -4 -10z"/>
<path d="M2940 4410 c0 -5 5 -10 11 -10 5 0 7 5 4 10 -3 6 -8 10 -11 10 -2 0
-4 -4 -4 -10z"/>
<path d="M3125 4230 c10 -11 20 -20 23 -20 3 0 -3 9 -13 20 -10 11 -20 20 -23
20 -3 0 3 -9 13 -20z"/>
<path d="M2366 4195 c-11 -8 -15 -15 -9 -15 6 0 16 7 23 15 16 19 11 19 -14 0z"/>
<path d="M3287 4153 c-2 -5 -1 -17 3 -27 6 -19 7 -19 12 2 6 21 -6 40 -15 25z"/>
<path d="M3230 4140 c8 -5 22 -9 30 -9 10 0 8 3 -5 9 -27 12 -43 12 -25 0z"/>
<path d="M2618 4133 c7 -3 16 -2 19 1 4 3 -2 6 -13 5 -11 0 -14 -3 -6 -6z"/>
<path d="M1505 4106 c-82 -8 -167 -18 -187 -24 -21 -6 -47 -8 -58 -5 -11 3
-20 1 -20 -5 0 -5 -30 -21 -67 -35 -161 -60 -210 -93 -353 -235 -58 -58 -162
-148 -220 -190 -2 -1 2 -12 9 -24 7 -11 20 -44 29 -72 19 -56 52 -107 58 -90
3 6 11 19 18 29 11 16 17 17 42 7 68 -28 250 7 280 53 12 18 23 23 62 22 26 0
96 12 155 28 59 15 110 26 112 23 3 -3 14 -38 24 -79 11 -41 29 -110 41 -153
11 -44 17 -82 13 -86 -14 -12 -75 -30 -84 -24 -5 3 -9 1 -9 -4 0 -6 -20 -16
-45 -23 -25 -7 -45 -19 -45 -26 0 -7 -5 -13 -10 -13 -6 0 -15 -11 -21 -24 -6
-13 -22 -29 -35 -36 l-23 -13 20 -39 20 -38 -26 -10 c-34 -13 -35 -13 -29 8 5
16 5 16 -6 -1 -6 -9 -9 -21 -5 -26 3 -5 -12 -15 -32 -22 -76 -24 -199 -87
-225 -115 -46 -50 -45 -72 8 -150 26 -38 64 -91 85 -118 l37 -50 -41 -23 c-23
-13 -63 -34 -89 -48 -52 -28 -53 -29 -42 -122 4 -29 11 -50 15 -47 5 3 9 1 9
-5 0 -5 -5 -13 -10 -16 -14 -9 -9 -75 5 -75 6 0 20 7 31 15 18 14 17 15 -11 9
-22 -5 -27 -4 -20 5 6 6 25 12 43 14 33 4 70 27 43 27 -10 0 -10 4 -3 13 10
11 12 17 12 35 0 4 5 0 10 -8 6 -9 10 -10 10 -3 0 6 -5 15 -11 18 -6 4 -8 13
-5 20 3 8 -2 19 -10 25 -29 25 -11 48 30 41 5 -1 4 5 -3 13 -10 12 -9 15 8 13
27 -2 34 -22 15 -42 -9 -8 -11 -15 -5 -15 5 0 13 5 16 10 3 6 18 10 33 10 21
0 23 -3 12 -10 -8 -5 -11 -12 -7 -16 3 -4 13 -1 21 5 11 9 16 9 21 0 4 -6 1
-16 -6 -21 -10 -7 -8 -8 9 -5 34 8 26 -10 -15 -32 -21 -11 -31 -20 -23 -21 9
0 20 4 25 8 14 11 72 36 62 26 -4 -4 -47 -29 -95 -54 -66 -35 -88 -51 -90 -69
-3 -20 -1 -21 17 -12 17 10 20 9 14 -5 -5 -14 -3 -15 17 -4 12 7 20 8 16 2
-15 -25 67 -18 84 7 3 4 39 33 80 63 42 30 82 63 90 73 8 9 37 28 65 41 166
80 182 91 224 153 23 33 41 69 41 80 0 24 19 38 30 21 6 -10 18 -9 56 4 54 18
64 13 64 -41 0 -39 18 -53 37 -27 27 38 43 54 53 54 6 0 3 -11 -6 -25 -16 -24
-16 -25 2 -20 11 4 1 -4 -21 -16 -59 -32 -80 -52 -81 -74 -1 -11 -5 -33 -9
-49 -8 -28 -7 -29 21 -21 16 4 66 10 112 12 l82 4 0 30 c0 27 2 29 15 15 10
-10 31 -14 61 -12 38 2 51 8 79 39 19 20 42 37 52 37 16 1 16 2 -2 12 -11 6
-24 17 -28 25 -5 8 -18 11 -35 7 -25 -5 -26 -4 -9 10 11 8 27 13 38 11 28 -6
34 14 7 25 l-23 9 22 6 c13 4 20 12 16 21 -4 12 0 12 22 4 23 -9 26 -8 21 5
-3 8 0 15 7 16 7 0 3 4 -8 8 -12 5 -26 4 -34 -2 -10 -9 -12 -7 -9 8 2 13 10
19 22 17 11 -2 20 4 23 16 3 12 12 19 21 17 10 -1 20 3 25 9 5 8 10 6 17 -4 7
-10 10 -11 11 -2 1 6 3 17 4 22 1 6 3 15 4 20 0 6 34 10 79 10 44 0 88 6 102
13 14 7 52 14 85 16 53 2 64 -1 100 -28 35 -27 48 -30 108 -31 48 0 66 -4 65
-12 -2 -9 11 -13 40 -14 32 -1 42 2 38 12 -4 10 3 14 24 14 25 0 30 -4 30 -25
0 -21 5 -25 33 -26 72 -1 103 -6 121 -16 16 -9 27 -6 55 13 20 13 40 24 46 24
5 0 2 -5 -8 -11 -9 -6 -15 -15 -11 -20 3 -5 2 -9 -3 -8 -26 5 -73 -30 -86 -64
-3 -9 -10 -17 -16 -17 -5 0 -11 -9 -14 -19 -3 -14 -1 -18 10 -14 8 3 13 0 11
-8 -2 -10 15 -16 57 -23 78 -11 155 -42 192 -76 16 -15 39 -32 51 -39 12 -6
22 -18 22 -25 0 -14 26 -29 89 -51 55 -19 61 -19 62 3 0 9 5 2 10 -15 6 -21
17 -35 32 -38 12 -3 65 -14 117 -25 98 -21 167 -55 231 -114 19 -17 47 -39 62
-49 15 -10 25 -23 21 -29 -4 -7 -3 -8 5 -4 6 4 24 -5 41 -23 17 -16 40 -33 53
-36 13 -4 -16 30 -73 85 -104 99 -190 170 -208 170 -7 0 -12 5 -12 10 0 10 14
14 40 10 21 -3 -25 45 -68 72 -19 12 -50 23 -70 25 -48 5 -87 25 -87 43 0 8
-13 24 -30 35 -39 25 -45 34 -45 72 0 33 1 34 48 16 9 -3 28 -8 41 -10 13 -2
36 -10 50 -17 49 -25 166 -55 241 -62 l75 -7 -25 24 c-13 13 -28 24 -31 24 -4
0 -11 4 -16 9 -4 5 -3 6 4 2 6 -3 14 -3 17 2 3 5 -1 9 -9 10 -8 1 -22 3 -30 4
-9 1 -14 7 -10 16 4 11 -1 13 -22 7 -27 -6 -27 -6 -8 9 17 13 18 15 3 16 -9 0
-18 4 -20 9 -1 4 -14 12 -27 16 -16 5 -21 4 -17 -4 11 -17 0 -13 -15 6 -10 11
-10 14 -1 9 6 -4 12 -3 12 2 0 6 -11 13 -25 16 -14 4 -23 10 -20 15 2 5 -2 12
-11 15 -24 9 -31 7 -14 -4 9 -6 10 -10 3 -10 -6 0 -18 8 -25 18 -25 34 -76 63
-100 57 -19 -5 -23 -2 -24 19 -2 23 0 24 20 14 18 -10 19 -9 8 4 -10 13 -10
17 2 21 8 3 34 32 57 64 24 31 59 73 80 93 48 46 139 178 139 202 0 21 -1 21
-34 8 -21 -7 -26 -16 -26 -42 0 -61 -17 -62 -23 -2 -5 47 -2 62 13 84 11 15
17 30 14 33 -8 8 73 -3 137 -19 31 -8 70 -14 86 -14 42 0 46 -9 18 -42 -29
-34 -31 -55 -9 -86 17 -24 53 -29 72 -10 15 15 16 64 2 73 -5 3 -10 20 -10 37
0 34 -20 33 188 7 84 -11 94 -10 112 6 26 24 15 38 -17 22 -21 -12 -47 -10
-177 9 -83 13 -182 30 -221 39 -38 8 -95 20 -125 26 -30 6 -59 14 -65 18 -5 5
-30 13 -55 19 -25 6 -75 18 -111 27 -61 15 -69 15 -98 1 -17 -9 -33 -16 -36
-15 -11 2 -66 -24 -60 -29 3 -3 -2 -14 -12 -24 -15 -17 -13 -18 48 -19 35 -1
89 -4 119 -9 l55 -7 -50 -3 c-64 -3 -44 -7 78 -15 94 -7 110 -13 85 -34 -7 -6
-28 -23 -46 -37 -28 -23 -33 -33 -30 -60 3 -27 0 -34 -17 -36 -14 -2 -19 -10
-18 -25 2 -16 -2 -21 -12 -17 -8 4 -23 3 -32 -1 -10 -5 -24 -9 -31 -11 -21 -4
-42 -25 -42 -43 0 -11 -3 -12 -8 -4 -6 9 -15 7 -37 -7 -19 -12 -24 -20 -15
-21 30 -3 56 3 78 17 12 8 22 10 22 5 0 -5 -13 -15 -30 -23 -33 -14 -35 -20
-20 -48 7 -13 5 -21 -8 -31 -15 -13 -16 -12 -3 4 8 10 9 17 3 17 -6 0 -14 -5
-17 -10 -4 -6 -10 -8 -15 -5 -5 3 -13 -9 -18 -27 -7 -26 -11 -29 -17 -16 -3 9
-13 14 -21 11 -17 -6 -18 1 -4 27 6 11 16 17 24 14 7 -3 16 3 20 13 3 10 9 24
12 31 3 7 -1 12 -10 12 -9 0 -20 -11 -25 -23 -5 -13 -24 -38 -42 -56 -24 -25
-34 -29 -40 -19 -15 23 -10 53 11 66 21 13 28 42 10 42 -5 0 -10 -9 -10 -20 0
-13 -7 -20 -20 -20 -11 0 -20 4 -20 10 0 5 7 7 15 4 8 -4 15 -1 15 5 0 18 -24
13 -42 -9 -16 -18 -16 -20 0 -32 9 -7 18 -20 18 -29 2 -19 -32 -43 -41 -29 -3
6 0 10 7 10 9 0 9 3 -2 10 -11 7 -12 12 -3 18 16 10 -11 46 -31 39 -8 -3 -16
-3 -19 0 -9 9 17 31 30 26 17 -7 17 14 1 21 -7 3 -4 5 7 4 11 -1 33 1 49 6 23
6 27 9 15 17 -11 7 -8 9 11 9 23 1 23 2 8 14 -14 10 -15 15 -5 25 10 11 7 12
-13 6 -25 -7 -25 -7 -5 10 17 14 17 16 3 11 -10 -3 -18 -2 -18 3 0 4 -10 7
-22 7 -14 -1 -24 6 -26 17 -2 9 2 17 8 17 6 0 9 -4 5 -9 -8 -14 9 -21 25 -10
13 8 12 11 -2 20 -10 5 -18 17 -18 26 0 11 -7 14 -27 9 -19 -4 -23 -3 -14 3
10 7 11 13 1 27 -8 13 -10 14 -7 3 4 -12 -2 -16 -26 -15 -18 0 -99 -21 -182
-48 -82 -26 -156 -50 -164 -52 -11 -3 -12 -21 -6 -89 l7 -84 -34 -5 c-18 -3
-72 -8 -120 -11 l-88 -6 0 38 c0 21 -3 61 -6 89 l-6 50 36 -4 c30 -3 36 -8 36
-27 0 -13 6 -26 13 -28 6 -3 -5 -6 -25 -6 -33 -1 -38 -4 -38 -24 0 -13 5 -28
12 -35 9 -9 9 -12 0 -12 -6 0 -9 -7 -5 -15 4 -13 17 -15 67 -10 140 13 142 14
141 38 -1 13 -5 28 -9 35 -4 7 -4 17 -1 22 4 6 -16 10 -53 10 -57 0 -59 1 -55
23 3 13 10 24 16 24 7 1 30 6 52 12 37 9 35 10 -22 5 -74 -7 -198 13 -216 34
-10 12 -8 17 7 26 11 6 28 19 38 29 10 9 20 17 23 17 22 0 154 98 219 162 l80
79 60 -7 c54 -6 59 -5 53 10 -4 10 -7 22 -7 27 0 5 -11 9 -24 9 -14 0 -27 4
-31 9 -20 34 371 136 481 125 63 -6 144 12 152 34 2 6 -3 12 -12 12 -9 0 -45
18 -81 40 -72 44 -83 41 -30 -10 19 -19 31 -36 25 -40 -5 -3 -64 -6 -132 -8
-68 -1 -149 -4 -180 -8 -50 -5 -58 -3 -67 15 -6 11 -44 42 -85 68 -83 55 -196
155 -197 175 0 7 -4 4 -8 -7 -6 -15 1 -33 25 -70 33 -49 34 -50 13 -61 -12 -6
-32 -9 -45 -6 -13 2 -31 -1 -39 -8 -18 -15 -20 -61 -3 -78 18 -18 49 -14 55 7
2 10 16 24 29 30 13 6 24 15 24 21 0 24 29 7 59 -36 18 -25 32 -47 30 -49 -13
-11 -86 -35 -109 -35 -15 0 -35 -9 -45 -20 -10 -11 -31 -20 -47 -20 -18 0 -28
-5 -28 -15 0 -22 -17 -18 -23 5 -7 28 -77 29 -77 2 0 -10 6 -24 12 -30 10 -10
10 -15 -1 -21 -9 -6 -12 -21 -9 -44 2 -20 1 -34 -3 -32 -3 3 -9 32 -12 66 -3
33 -8 63 -11 66 -3 4 -33 5 -67 4 -34 -1 -59 2 -57 6 1 4 10 25 17 45 10 24
22 38 35 40 16 2 22 12 24 37 3 31 2 33 -13 21 -12 -10 -18 -11 -24 -2 -9 16
-103 35 -110 23 -4 -5 -51 -10 -106 -10 -55 -1 -111 -3 -125 -5 -14 -2 -32 -4
-41 -5 -9 0 -20 -8 -23 -17 -4 -11 -2 -15 7 -11 8 3 2 -18 -15 -54 -15 -32
-28 -63 -28 -68 0 -6 -30 -12 -67 -14 l-68 -4 74 1 73 1 22 55 22 55 175 -4
c96 -1 176 -5 178 -7 2 -2 -4 -22 -14 -44 l-18 -40 -136 -2 c-75 0 -144 -1
-153 0 -10 1 -18 -3 -18 -8 0 -6 46 -11 113 -11 123 -2 119 -5 -23 -18 -61 -5
-102 -4 -115 2 -19 10 -19 10 0 18 19 7 19 8 1 8 -11 1 -27 -6 -37 -15 -20
-18 -89 -31 -89 -16 0 5 -13 9 -30 8 -16 -1 -30 -4 -30 -7 0 -4 -15 -6 -32 -5
-22 1 -39 -5 -50 -19 -15 -18 -17 -18 -18 -2 0 15 -12 17 -107 18 -137 0 -233
8 -253 19 -13 8 -13 9 2 10 27 0 32 20 5 20 -17 0 -27 -7 -31 -22 -5 -19 -8
-20 -15 -8 -5 8 -7 18 -5 22 7 11 -24 10 -46 -2 -18 -9 -38 -72 -31 -95 7 -24
8 -105 2 -105 -4 0 -8 6 -8 13 0 17 -51 205 -65 241 -11 26 -9 31 22 56 18 15
41 25 50 23 10 -3 55 9 101 25 46 16 107 35 136 41 29 7 62 22 75 34 16 15 37
22 65 22 50 1 163 52 163 74 0 8 3 11 7 8 3 -4 14 5 24 19 14 21 15 32 7 50
-14 29 -20 30 -43 4 -32 -36 -130 -54 -172 -32 -12 7 -30 12 -41 12 -11 0 -25
6 -31 14 -6 8 -21 16 -32 19 -16 4 -19 2 -15 -10 9 -21 -13 -46 -29 -33 -8 7
-11 4 -11 -12 1 -11 -5 -23 -11 -25 -7 -3 -13 3 -13 14 -1 12 -5 8 -14 -12
-12 -28 -13 -29 -24 -10 -11 20 -11 20 -12 0 0 -26 -59 -52 -72 -32 -6 9 -8 8
-8 -3 -1 -11 -4 -10 -15 4 -15 19 -15 19 -15 -2 0 -24 -15 -30 -23 -9 -3 6 -6
3 -6 -7 -1 -20 -1 -20 -17 0 -15 19 -15 18 -11 -3 5 -24 -8 -32 -16 -10 -3 6
-6 3 -6 -7 -1 -20 -1 -20 -16 0 -13 17 -14 17 -15 2 0 -20 -20 -25 -20 -5 0 8
-4 7 -10 -3 -9 -13 -11 -13 -20 0 -9 13 -10 13 -10 0 -1 -11 -4 -10 -15 4 -11
14 -15 16 -15 5 0 -12 -2 -12 -10 1 -8 13 -10 12 -10 -4 0 -15 -3 -16 -14 -7
-12 10 -17 8 -26 -9 -9 -16 -15 -19 -23 -11 -13 13 -47 -14 -47 -38 0 -14 -2
-14 -11 -1 -8 11 -12 12 -16 3 -2 -7 -11 -13 -19 -13 -8 0 -14 -8 -14 -17 0
-15 -2 -16 -10 -3 -8 12 -10 12 -11 -5 0 -11 -3 -14 -6 -7 -7 18 -23 15 -23
-5 0 -15 -2 -16 -10 -3 -9 13 -10 13 -10 0 0 -13 -1 -13 -10 0 -6 10 -10 11
-10 3 0 -15 -55 -45 -64 -36 -3 4 -6 0 -6 -8 0 -12 -2 -11 -10 1 -8 12 -12 12
-18 2 -5 -7 -31 -16 -59 -19 -42 -4 -51 -2 -57 13 -4 11 -2 20 3 22 6 2 8 8 5
14 -5 7 5 9 30 4 28 -5 50 -1 94 18 31 14 95 40 142 57 52 20 97 44 115 63 29
29 34 31 115 31 130 0 294 52 363 114 l38 34 35 -16 c37 -18 99 -21 178 -8 36
6 57 16 75 37 16 20 26 25 29 16 8 -24 50 -67 58 -59 4 4 -1 26 -13 50 -11 23
-23 56 -27 73 -7 30 -10 32 -69 38 -139 13 -320 14 -462 2z m-725 -522 c-18
-21 -24 -10 -9 18 8 14 14 18 17 10 2 -7 -2 -19 -8 -28z m1510 -124 c0 -5 -2
-10 -4 -10 -3 0 -8 5 -11 10 -3 6 -1 10 4 10 6 0 11 -4 11 -10z m-150 -30 c0
-5 -5 -10 -11 -10 -5 0 -7 5 -4 10 3 6 8 10 11 10 2 0 4 -4 4 -10z m723 -5
c-3 -9 -8 -14 -10 -11 -3 3 -2 9 2 15 9 16 15 13 8 -4z m-1153 -10 c-7 -8 -16
-12 -21 -9 -5 3 -9 0 -9 -7 0 -7 -3 -9 -6 -6 -10 9 16 37 33 37 13 0 13 -3 3
-15z m320 5 c-8 -5 -19 -10 -25 -10 -5 0 -3 5 5 10 8 5 20 10 25 10 6 0 3 -5
-5 -10z m-210 -25 c20 -8 27 -14 17 -14 -10 -1 -15 -6 -12 -11 4 -6 11 -8 16
-5 5 4 9 1 9 -4 0 -13 -10 -14 -30 -1 -8 5 -11 12 -7 17 5 4 -7 13 -25 19 -18
7 -26 12 -18 12 8 0 31 -6 50 -13z m246 -22 c-10 -10 -19 5 -10 18 6 11 8 11
12 0 2 -7 1 -15 -2 -18z m254 1 c21 -21 22 -27 10 -35 -27 -16 -44 -5 -46 29
-2 39 5 40 36 6z m-272 -18 c-1 -2 -15 -6 -30 -10 -22 -5 -28 -3 -28 9 0 22
43 37 53 18 5 -8 7 -16 5 -17z m542 2 c0 -6 11 -7 24 -4 34 9 56 -19 30 -39
-29 -22 -53 -18 -66 10 -8 18 -19 25 -40 25 -16 0 -28 -5 -28 -12 0 -9 -4 -8
-10 2 -14 21 -12 28 8 32 29 6 82 -4 82 -14z m-632 -14 c-4 -20 -113 -56 -146
-49 -13 3 -21 1 -20 -5 2 -6 -14 -17 -34 -24 -38 -14 -44 -11 -30 12 8 11 191
80 220 81 8 1 12 -6 10 -15z m427 -64 c12 -20 -7 -32 -21 -13 -10 13 -13 14
-14 4 0 -8 -3 -12 -6 -8 -9 9 5 27 21 27 8 0 17 -4 20 -10z m220 0 c3 -5 1
-10 -4 -10 -6 0 -11 5 -11 10 0 6 2 10 4 10 3 0 8 -4 11 -10z m-905 -24 c0
-12 -122 -53 -150 -49 -8 1 -18 -3 -21 -9 -4 -7 -12 -7 -24 -1 -20 12 -14 17
38 31 26 8 37 7 37 -1 0 -6 6 -3 13 6 14 19 65 40 78 31 5 -3 9 0 9 6 0 6 5 8
10 5 6 -3 10 -12 10 -19z m-130 5 c0 -5 -10 -11 -22 -14 -22 -6 -22 -6 -4 8
23 17 26 18 26 6z m-96 -16 c-4 -8 -11 -15 -16 -15 -6 0 -5 6 2 15 7 8 14 15
16 15 2 0 1 -7 -2 -15z m636 -25 c0 -5 -5 -10 -11 -10 -5 0 -7 5 -4 10 3 6 8
10 11 10 2 0 4 -4 4 -10z m155 -9 c-3 -6 -13 -11 -21 -11 -9 0 -25 -5 -36 -11
-16 -9 -18 -13 -7 -20 10 -6 7 -8 -9 -6 -12 0 -22 3 -22 4 0 10 42 42 66 50
32 11 39 10 29 -6z m340 9 c-3 -5 -12 -10 -18 -10 -7 0 -6 4 3 10 19 12 23 12
15 0z m-548 -39 c1 -11 -5 -22 -13 -25 -8 -3 -14 -1 -14 4 0 6 6 10 13 11 9 0
9 2 -1 6 -6 2 -10 9 -6 14 9 15 20 10 21 -10z m143 -74 c12 4 13 3 1 -5 -8 -6
-10 -15 -6 -22 5 -9 4 -11 -3 -6 -7 4 -12 3 -12 -2 0 -11 -67 -32 -73 -23 -2
3 -3 1 -1 -5 1 -6 -14 -11 -34 -12 -36 -1 -36 0 -17 15 11 9 14 14 5 11 -46
-16 -60 -19 -60 -15 0 3 20 12 43 20 30 10 49 12 61 5 21 -12 66 -2 66 13 0 6
-6 9 -13 6 -8 -3 -13 3 -13 14 0 11 4 19 8 19 4 0 8 5 8 10 0 6 -7 10 -15 10
-13 0 -14 2 -3 14 11 12 15 9 28 -18 10 -21 20 -32 30 -29z m197 57 c-3 -3
-12 -4 -19 -1 -8 3 -5 6 6 6 11 1 17 -2 13 -5z m193 -8 c-6 -8 -19 -12 -27 -9
-10 4 -14 2 -10 -4 10 -16 -51 -37 -98 -34 -19 2 -19 2 -2 12 10 6 25 8 33 5
8 -3 23 2 34 12 11 9 33 20 48 23 15 4 29 7 31 8 2 0 -2 -5 -9 -13z m-1195
-16 c-11 -5 -27 -9 -35 -9 -9 0 -8 4 5 9 11 5 27 9 35 9 9 0 8 -4 -5 -9z m215
0 c0 -5 -4 -10 -9 -10 -6 0 -13 5 -16 10 -3 6 1 10 9 10 9 0 16 -4 16 -10z
m450 -15 c0 -8 -2 -15 -4 -15 -2 0 -6 7 -10 15 -3 8 -1 15 4 15 6 0 10 -7 10
-15z m-232 -19 c2 -10 0 -22 -6 -28 -6 -6 -11 1 -14 22 -5 32 14 38 20 6z
m1512 14 c-8 -5 -19 -10 -25 -10 -5 0 -3 5 5 10 8 5 20 10 25 10 6 0 3 -5 -5
-10z m-1022 -12 c-5 -13 -57 -30 -70 -22 -15 10 -8 23 15 27 43 8 59 7 55 -5z
m-223 -8 c3 -5 1 -10 -4 -10 -6 0 -11 5 -11 10 0 6 2 10 4 10 3 0 8 -4 11 -10z
m335 6 c0 -2 -7 -7 -16 -10 -8 -3 -12 -2 -9 4 6 10 25 14 25 6z m-45 -16 c-3
-5 -14 -10 -23 -10 -15 0 -15 2 -2 10 20 13 33 13 25 0z m164 -13 c-20 -15
-110 -44 -114 -36 -4 5 2 12 12 15 10 3 27 10 38 14 34 15 81 20 64 7z m1191
-13 c0 -8 -5 -12 -10 -9 -6 4 -8 11 -5 16 9 14 15 11 15 -7z m-1900 -8 c0 -2
-6 -19 -14 -37 -18 -45 -13 -119 8 -131 9 -5 14 -14 10 -19 -9 -16 -47 40 -41
61 3 13 0 20 -10 20 -8 0 -11 5 -8 10 3 6 1 10 -4 10 -6 0 -11 9 -11 21 0 13
4 18 12 13 8 -5 9 -2 5 11 -5 11 -1 22 10 31 17 12 43 19 43 10z m414 -17
c-27 -11 -54 -11 -54 0 0 12 29 18 54 12 20 -4 20 -4 0 -12z m-262 -4 c0 -8 1
-20 2 -27 1 -7 -16 -13 -43 -14 -24 -1 -48 -7 -54 -13 -14 -14 -37 -14 -37 -1
0 6 6 10 13 9 6 -1 25 3 40 9 16 7 32 12 37 12 5 0 12 9 15 20 7 23 24 27 27
5z m662 -38 c-6 -41 -8 -44 -24 -34 -18 10 -18 12 1 35 10 14 19 32 19 40 0 8
2 13 5 10 3 -2 2 -25 -1 -51z m-469 33 c-3 -5 -15 -10 -25 -10 -10 0 -21 -4
-24 -8 -3 -5 -20 -9 -38 -10 -32 0 -32 0 -8 10 24 10 75 25 93 27 5 1 5 -3 2
-9z m903 -71 c-18 -11 -18 -8 -5 41 l12 45 3 -39 c2 -24 -2 -42 -10 -47z
m-724 -31 c3 -16 2 -28 -3 -28 -8 0 -12 16 -25 100 -6 35 -6 34 8 -5 7 -22 16
-52 20 -67z m-909 58 c-38 -18 -86 -36 -105 -39 -19 -4 -53 -20 -75 -34 -22
-15 -46 -28 -53 -29 -7 -1 -61 -21 -120 -45 -102 -40 -193 -65 -175 -49 4 5
55 26 113 48 58 22 186 72 285 111 194 75 242 89 130 37z m1078 18 c-4 -10 -1
-15 8 -14 26 4 40 0 34 -10 -3 -5 -12 -7 -19 -4 -19 7 -32 -16 -15 -27 8 -4
19 -3 28 4 12 10 13 9 2 -10 -6 -13 -16 -23 -21 -23 -5 0 -6 -7 -3 -17 4 -10
2 -14 -4 -10 -6 4 -13 1 -16 -6 -3 -9 -16 -12 -37 -9 -28 4 -34 17 -7 17 5 0
12 6 15 13 2 7 -5 12 -20 12 -56 0 -68 10 -67 54 0 22 3 35 6 28 9 -23 103
-62 103 -43 0 6 -5 10 -11 9 -6 -2 -14 3 -16 10 -3 6 3 12 14 13 12 0 14 2 4
6 -11 5 -11 7 0 14 21 13 29 11 22 -7z m780 -5 c4 -16 3 -18 -9 -8 -16 13 -19
29 -5 29 5 0 11 -9 14 -21z m42 1 c3 -5 1 -10 -4 -10 -6 0 -11 5 -11 10 0 6 2
10 4 10 3 0 8 -4 11 -10z m-1325 -22 c0 -4 -8 -8 -17 -9 -10 0 -33 -2 -50 -5
-42 -5 -43 3 -2 14 40 10 69 10 69 0z m810 -2 c0 -3 -4 -8 -10 -11 -5 -3 -10
-1 -10 4 0 6 5 11 10 11 6 0 10 -2 10 -4z m60 -4 c0 -5 -7 -9 -15 -9 -8 0 -15
4 -15 9 0 4 7 8 15 8 8 0 15 -4 15 -8z m126 -40 c-12 -11 -18 7 -10 30 l8 23
4 -23 c2 -13 1 -26 -2 -30z m-266 28 c0 -5 -2 -10 -4 -10 -3 0 -8 5 -11 10 -3
6 -1 10 4 10 6 0 11 -4 11 -10z m30 0 c0 -5 -2 -10 -4 -10 -3 0 -8 5 -11 10
-3 6 -1 10 4 10 6 0 11 -4 11 -10z m-870 -4 c0 -2 -7 -6 -15 -10 -8 -3 -15 -1
-15 4 0 6 7 10 15 10 8 0 15 -2 15 -4z m376 -13 c-2 -10 -9 -18 -17 -19 -53
-4 -55 -5 -31 -15 13 -5 29 -7 35 -4 7 3 2 -2 -10 -11 -14 -10 -23 -27 -23
-43 -1 -25 -1 -25 -15 -7 -8 11 -13 28 -9 38 8 25 -22 24 -38 -2 -8 -12 -24
-20 -40 -20 -31 0 -64 -50 -45 -69 16 -16 -10 -14 -27 2 -12 10 -12 15 1 30 9
9 11 17 6 17 -6 0 -16 -6 -22 -14 -17 -20 -45 -13 -49 11 -3 18 11 25 95 54
70 25 97 39 95 49 -3 11 -1 12 8 3 9 -8 20 -8 44 3 41 17 45 17 42 -3z m699
-3 c3 -5 1 -10 -4 -10 -6 0 -11 5 -11 10 0 6 2 10 4 10 3 0 8 -4 11 -10z
m-1935 -14 c0 -24 -17 -28 -23 -6 -3 13 0 20 9 20 8 0 14 -6 14 -14z m1590
-11 c0 -14 -5 -25 -11 -25 -7 0 -18 -8 -25 -17 -9 -12 -8 -4 3 25 18 47 33 55
33 17z m-613 -7 c-3 -8 -6 -5 -6 6 -1 11 2 17 5 13 3 -3 4 -12 1 -19z m813 7
c0 -8 -8 -15 -17 -14 -11 0 -13 3 -5 6 6 2 10 9 6 14 -3 5 0 9 5 9 6 0 11 -7
11 -15z m760 5 c0 -5 -2 -10 -4 -10 -3 0 -8 5 -11 10 -3 6 -1 10 4 10 6 0 11
-4 11 -10z m-1690 -16 c0 -2 -7 -4 -15 -4 -8 0 -15 4 -15 10 0 5 7 7 15 4 8
-4 15 -8 15 -10z m1160 6 c0 -5 -5 -10 -11 -10 -5 0 -7 5 -4 10 3 6 8 10 11
10 2 0 4 -4 4 -10z m-1703 -6 c-3 -3 -12 -4 -19 -1 -8 3 -5 6 6 6 11 1 17 -2
13 -5z m1673 2 c0 -11 -19 -15 -25 -6 -3 5 1 10 9 10 9 0 16 -2 16 -4z m86
-13 c-4 -9 -1 -20 6 -25 8 -4 -13 -8 -49 -8 -61 0 -81 11 -46 25 10 3 19 1 21
-4 7 -20 42 -12 42 9 0 12 7 20 16 20 11 0 14 -5 10 -17z m64 -18 c-7 -8 -18
-15 -25 -15 -19 0 -6 38 14 42 21 5 26 -9 11 -27z m-1677 11 c18 -7 41 -24 52
-37 l20 -23 -29 18 c-15 10 -51 26 -80 36 -41 15 -46 19 -23 19 15 1 42 -5 60
-13z m1051 -1 c3 -8 1 -15 -4 -15 -6 0 -10 7 -10 15 0 8 2 15 4 15 2 0 6 -7
10 -15z m-264 1 c0 -2 -7 -7 -16 -10 -8 -3 -12 -2 -9 4 6 10 25 14 25 6z
m-943 -12 c-3 -3 -12 -4 -19 -1 -8 3 -5 6 6 6 11 1 17 -2 13 -5z m-65 -24
c-42 -26 -56 -26 -17 0 17 11 35 20 40 20 6 0 -5 -9 -23 -20z m898 -5 c-10
-12 -9 -15 6 -15 11 0 25 -9 32 -21 8 -12 9 -18 3 -15 -5 4 -12 2 -16 -4 -10
-15 -35 -12 -35 5 0 17 -16 20 -25 5 -8 -13 -25 -13 -25 1 0 14 61 71 68 65 3
-3 -1 -12 -8 -21z m1274 -10 c16 -12 17 -15 4 -15 -8 0 -21 7 -28 15 -16 19
-1 19 24 0z m-444 -13 c0 -5 -7 -9 -15 -9 -8 0 -15 4 -15 9 0 4 7 8 15 8 8 0
15 -4 15 -8z m54 0 c2 -4 -7 -9 -20 -10 -15 -1 -22 2 -19 8 7 12 32 13 39 2z
m76 -4 c0 -4 -9 -8 -20 -8 -11 0 -20 4 -20 9 0 6 9 9 20 8 11 -1 20 -5 20 -9z
m60 2 c0 -5 -7 -10 -15 -10 -8 0 -15 5 -15 10 0 6 7 10 15 10 8 0 15 -4 15
-10z m85 0 c-3 -5 -10 -10 -16 -10 -5 0 -9 5 -9 10 0 6 7 10 16 10 8 0 12 -4
9 -10z m100 0 c-3 -5 -11 -10 -16 -10 -6 0 -7 5 -4 10 3 6 11 10 16 10 6 0 7
-4 4 -10z m-95 -25 c-6 -7 -20 -11 -30 -8 -26 7 -18 18 14 19 21 2 24 -1 16
-11z m210 -7 c-12 -9 -32 -15 -48 -13 -15 2 -21 2 -14 -1 17 -8 15 -25 -3 -18
-41 16 0 52 57 50 29 -1 29 -1 8 -18z m-1620 -3 c0 -8 -4 -15 -9 -15 -13 0
-22 16 -14 24 11 11 23 6 23 -9z m1474 -6 c-8 -13 -21 -11 -27 5 -4 10 0 12
14 9 10 -3 16 -9 13 -14z m216 6 c8 -9 8 -15 2 -15 -18 0 -42 12 -42 21 0 14
26 10 40 -6z m-336 -11 c3 -8 2 -12 -4 -9 -6 3 -10 10 -10 16 0 14 7 11 14 -7z
m81 -4 c3 -5 1 -10 -4 -10 -6 0 -11 5 -11 10 0 6 2 10 4 10 3 0 8 -4 11 -10z
m175 -22 c0 -6 -3 -8 -7 -5 -3 4 -13 1 -22 -6 -14 -11 -14 -10 -2 6 15 20 31
22 31 5z m170 -10 c0 -6 -7 -7 -16 -4 -9 3 -20 6 -25 6 -6 0 -8 4 -5 9 8 12
46 2 46 -11z m-399 -3 c-39 -18 -41 -18 -41 -6 0 5 10 12 23 14 45 9 51 6 18
-8z m-1398 -36 c-16 -26 -16 -31 -3 -39 8 -5 11 -10 5 -11 -5 0 -22 -2 -38 -4
-19 -3 -30 2 -37 15 -9 16 -6 22 18 34 16 8 34 22 41 30 22 26 32 7 14 -25z
m1732 11 c3 -5 -4 -6 -15 -3 -11 3 -22 9 -25 13 -3 5 4 6 15 3 11 -3 22 -9 25
-13z m-1820 -100 c-3 -5 -12 -10 -18 -10 -7 0 -6 4 3 10 19 12 23 12 15 0z
m1543 -9 c7 0 11 -4 9 -8 -3 -5 -31 -6 -64 -4 -47 4 -52 6 -28 11 17 3 39 5
50 4 11 -1 26 -2 33 -3z m507 -1 c3 -5 2 -10 -4 -10 -5 0 -13 5 -16 10 -3 6
-2 10 4 10 5 0 13 -4 16 -10z m-1951 -69 c-5 -5 -20 -12 -34 -16 -23 -6 -22
-5 5 13 29 19 48 21 29 3z m-880 -45 c-22 -17 -32 -3 -13 20 8 10 15 12 23 4
7 -7 4 -14 -10 -24z m813 18 c-3 -3 -12 -4 -19 -1 -8 3 -5 6 6 6 11 1 17 -2
13 -5z m-867 -49 c-7 -9 -15 -13 -19 -10 -3 3 1 10 9 15 21 14 24 12 10 -5z
m-37 -8 c3 -8 -1 -14 -9 -14 -15 0 -18 9 -7 20 9 9 10 9 16 -6z m2634 -19 c-3
-7 -5 -2 -5 12 0 14 2 19 5 13 2 -7 2 -19 0 -25z m-2617 -122 c0 -3 -4 -8 -10
-11 -5 -3 -10 -1 -10 4 0 6 5 11 10 11 6 0 10 -2 10 -4z"/>
<path d="M1975 3010 c3 -5 8 -10 11 -10 2 0 4 5 4 10 0 6 -5 10 -11 10 -5 0
-7 -4 -4 -10z"/>
<path d="M3373 4028 c12 -13 24 -19 26 -15 1 5 -5 15 -15 22 -29 22 -36 17
-11 -7z"/>
<path d="M3256 4027 c3 -10 9 -15 12 -12 3 3 0 11 -7 18 -10 9 -11 8 -5 -6z"/>
<path d="M3265 3971 c-3 -5 -1 -12 5 -16 5 -3 10 1 10 9 0 18 -6 21 -15 7z"/>
<path d="M3244 3935 c-3 -8 -4 -20 -2 -27 3 -7 7 -1 10 15 6 29 1 36 -8 12z"/>
<path d="M3077 3919 c7 -7 15 -10 18 -7 3 3 -2 9 -12 12 -14 6 -15 5 -6 -5z"/>
<path d="M3239 3869 l-24 -20 28 17 c15 9 27 18 27 20 0 8 -8 4 -31 -17z"/>
<path d="M3188 3793 c7 -3 16 -2 19 1 4 3 -2 6 -13 5 -11 0 -14 -3 -6 -6z"/>
<path d="M3569 3718 c22 -25 50 -30 35 -7 -3 6 -9 8 -12 5 -3 -3 -15 2 -26 11
-16 13 -15 11 3 -9z"/>
<path d="M3281 3693 c7 -12 15 -20 18 -17 3 2 -3 12 -13 22 -17 16 -18 16 -5
-5z"/>
<path d="M3688 3663 c19 -7 14 -23 -5 -17 -15 5 -16 4 -3 -5 8 -6 19 -6 24 -1
10 10 -1 30 -17 29 -9 0 -9 -2 1 -6z"/>
<path d="M3740 3576 c0 -7 29 -17 78 -25 42 -7 86 -14 97 -17 15 -4 14 -1 -5
10 -14 8 -28 12 -32 10 -7 -5 -23 -1 -105 25 -25 7 -33 7 -33 -3z"/>
<path d="M3846 3578 c3 -5 10 -6 15 -3 13 9 11 12 -6 12 -8 0 -12 -4 -9 -9z"/>
<path d="M1792 3515 c-11 -13 -7 -15 25 -14 21 1 30 3 21 6 -10 2 -18 9 -18
14 0 13 -13 10 -28 -6z"/>
<path d="M1885 3510 c-4 -6 9 -10 31 -10 42 0 42 4 2 14 -15 3 -30 2 -33 -4z"/>
<path d="M1970 3510 c0 -5 15 -10 34 -10 19 0 38 5 41 10 4 6 -10 10 -34 10
-23 0 -41 -4 -41 -10z"/>
<path d="M1668 3503 c12 -2 32 -2 45 0 12 2 2 4 -23 4 -25 0 -35 -2 -22 -4z"/>
<path d="M3447 3478 c-15 -5 -25 -14 -22 -18 6 -10 62 7 71 21 7 11 -13 10
-49 -3z"/>
<path d="M3379 3456 c-2 -3 -18 -7 -34 -10 -68 -12 -86 -18 -83 -28 5 -13 13
-12 76 3 30 7 52 18 52 26 0 13 -3 16 -11 9z"/>
<path d="M3624 3444 c-18 -14 -18 -15 4 -4 12 6 22 13 22 15 0 8 -5 6 -26 -11z"/>
<path d="M3528 3392 c-26 -15 -48 -30 -48 -34 0 -6 95 45 109 58 13 12 -20 -1
-61 -24z"/>
<path d="M3401 3318 c-19 -9 -52 -24 -73 -33 -35 -14 -52 -35 -28 -35 13 0 98
43 125 63 30 23 15 26 -24 5z"/>
<path d="M3488 3273 c17 -2 47 -2 65 0 17 2 3 4 -33 4 -36 0 -50 -2 -32 -4z"/>
<path d="M3405 3260 c-8 -13 5 -13 25 0 13 8 13 10 -2 10 -9 0 -20 -4 -23 -10z"/>
<path d="M3260 3245 c0 -8 2 -15 4 -15 2 0 6 7 10 15 3 8 1 15 -4 15 -6 0 -10
-7 -10 -15z"/>
<path d="M3140 3224 c-52 -17 -70 -22 -86 -23 -12 -1 -28 -31 -20 -38 2 -2 20
3 40 11 20 8 39 15 41 15 20 -3 95 28 95 38 0 16 -13 16 -70 -3z"/>
<path d="M3005 3177 c-4 -10 -5 -21 -1 -24 10 -10 18 4 13 24 -4 17 -4 17 -12
0z"/>
<path d="M2970 3159 c0 -11 5 -17 10 -14 6 3 10 13 10 21 0 8 -4 14 -10 14 -5
0 -10 -9 -10 -21z"/>
<path d="M2906 3163 c-9 -9 -7 -33 3 -33 12 0 22 28 12 34 -5 3 -11 3 -15 -1z"/>
<path d="M2936 3155 c-3 -9 0 -15 9 -15 8 0 15 7 15 15 0 8 -4 15 -9 15 -5 0
-11 -7 -15 -15z"/>
<path d="M2860 3140 c0 -11 7 -20 15 -20 8 0 15 9 15 20 0 11 -7 20 -15 20 -8
0 -15 -9 -15 -20z"/>
<path d="M2800 3130 c0 -11 7 -20 15 -20 8 0 15 9 15 20 0 11 -7 20 -15 20 -8
0 -15 -9 -15 -20z"/>
<path d="M2170 2640 c0 -5 7 -10 16 -10 8 0 12 5 9 10 -3 6 -10 10 -16 10 -5
0 -9 -4 -9 -10z"/>
<path d="M1706 2502 c-2 -4 -1 -14 5 -22 7 -12 9 -10 9 8 0 23 -5 28 -14 14z"/>
<path d="M1646 2473 c-22 -12 -26 -17 -15 -24 18 -11 40 -11 59 1 13 8 13 11
0 24 -13 13 -18 13 -44 -1z"/>
<path d="M1968 2448 c8 -8 20 -8 44 -1 l33 11 -44 1 c-34 1 -42 -2 -33 -11z"/>
<path d="M3 2290 c0 -36 2 -50 4 -32 2 17 2 47 0 65 -2 17 -4 3 -4 -33z"/>
<path d="M997 2300 c-8 -11 -17 -17 -22 -12 -5 4 -5 1 -1 -6 7 -11 11 -11 24
1 10 8 24 16 31 19 12 3 12 6 -2 11 -10 4 -21 -1 -30 -13z"/>
<path d="M3630 2280 c0 -5 5 -10 11 -10 5 0 7 5 4 10 -3 6 -8 10 -11 10 -2 0
-4 -4 -4 -10z"/>
<path d="M1477 2231 c-44 -31 -51 -41 -163 -228 -80 -135 -113 -180 -101 -137
3 11 9 37 12 59 4 22 20 89 37 148 17 59 28 110 25 114 -13 13 -60 -31 -101
-95 -24 -37 -106 -181 -182 -320 -131 -239 -141 -254 -181 -273 -43 -21 -200
-156 -229 -197 -9 -13 -33 -34 -54 -47 -20 -13 -40 -33 -43 -46 -5 -20 -3 -21
38 -16 52 8 90 -17 103 -66 6 -24 20 -39 53 -57 24 -13 69 -50 100 -82 45 -48
65 -61 110 -73 43 -12 56 -12 64 -2 21 27 69 57 90 57 12 0 37 -14 54 -31 25
-24 38 -29 58 -24 18 4 29 1 38 -12 12 -16 17 -16 36 -5 33 21 303 18 394 -3
71 -17 140 -13 294 17 36 6 56 7 60 0 3 -6 58 -11 121 -13 63 -1 124 -7 134
-12 10 -5 46 -11 78 -12 33 -2 62 -5 64 -8 7 -7 114 16 114 24 0 14 82 32 160
35 41 1 89 4 105 6 17 2 42 -2 57 -9 15 -7 31 -12 35 -12 8 2 32 -6 73 -24 31
-13 48 -16 127 -22 35 -3 79 -12 99 -20 37 -15 74 -20 74 -9 0 11 -24 50 -39
62 -40 32 -98 66 -130 74 -19 6 -59 30 -89 54 -30 25 -76 50 -105 59 -30 9
-66 29 -87 49 -26 25 -48 36 -82 40 -47 7 -48 7 -48 -21 0 -36 -7 -46 -50 -72
-39 -23 -77 -27 -113 -10 -19 9 -31 7 -63 -10 -81 -43 -96 -25 -52 63 25 52
37 66 55 66 26 0 43 27 43 70 0 21 9 39 26 55 26 24 26 28 20 92 -4 37 -9 69
-11 71 -9 9 -124 -67 -181 -119 -54 -48 -84 -64 -180 -89 -44 -12 -99 -30
-123 -41 -25 -11 -48 -16 -52 -12 -4 5 -10 31 -13 60 -12 104 -24 107 -67 16
-49 -105 -57 -111 -138 -105 -89 6 -123 -7 -201 -72 -59 -50 -107 -70 -187
-78 -5 0 -17 -7 -28 -14 -26 -18 -87 -18 -128 1 -31 14 -45 22 -98 57 -14 10
-46 20 -70 24 -56 8 -119 64 -119 106 0 43 19 74 60 97 51 28 84 26 128 -8 48
-37 92 -49 92 -24 1 10 20 45 43 78 39 54 46 60 74 57 33 -3 64 9 96 37 11 8
26 16 35 16 11 0 25 28 47 90 42 119 95 239 155 351 27 50 46 94 43 98 -15 15
-34 3 -63 -39 -36 -52 -109 -139 -121 -143 -18 -7 -8 33 22 85 24 42 29 57 19
66 -17 17 -63 -41 -95 -120 -29 -73 -31 -105 -10 -123 13 -11 22 -6 57 31 l42
44 -30 -55 c-30 -52 -85 -97 -104 -85 -5 3 -12 0 -16 -6 -5 -8 -3 -9 7 -4 11
6 12 5 2 -6 -36 -37 -54 67 -28 157 9 32 50 141 91 241 41 100 74 186 74 191
0 21 -27 18 -63 -7z m-98 -239 c-97 -228 -111 -319 -55 -373 l24 -23 -25 -30
c-14 -16 -32 -31 -41 -31 -10 -1 -32 -5 -50 -9 -24 -6 -40 -3 -58 9 -15 9 -54
21 -87 25 -51 8 -64 6 -79 -7 -22 -20 -23 -33 -2 -33 24 0 8 -17 -23 -23 -16
-4 -39 -16 -53 -27 -25 -19 -25 -20 -3 -20 33 0 36 -16 7 -39 -28 -22 -84 -29
-84 -10 0 6 14 24 30 41 17 16 30 37 30 47 0 10 11 27 25 39 28 25 61 88 170
330 43 95 79 171 80 170 2 -2 -8 -45 -21 -96 -13 -50 -28 -131 -35 -178 -10
-80 -10 -88 8 -112 11 -14 24 -27 29 -29 5 -2 27 41 48 94 31 80 220 443 230
443 2 0 -27 -71 -65 -158z m-30 -518 c-6 -8 -15 -12 -18 -8 -3 4 0 9 7 11 6 3
9 10 6 15 -4 7 -2 8 5 4 9 -6 9 -11 0 -22z"/>
<path d="M3820 2239 c0 -5 5 -7 10 -4 6 3 10 8 10 11 0 2 -4 4 -10 4 -5 0 -10
-5 -10 -11z"/>
<path d="M903 2212 c-23 -9 -62 -32 -88 -50 l-46 -32 28 -38 c56 -77 50 -74
94 -46 22 13 55 25 74 26 19 1 35 5 35 11 0 5 7 7 15 4 11 -5 12 -2 4 16 -6
13 -20 24 -31 24 -12 1 -31 12 -42 25 l-21 22 23 -18 c31 -27 38 -13 12 22
-12 17 -19 35 -16 41 9 13 10 14 -41 -7z m47 -85 c0 -2 -10 -12 -21 -23 -22
-19 -22 -19 -8 4 12 19 29 30 29 19z"/>
<path d="M3638 2223 c7 -3 16 -2 19 1 4 3 -2 6 -13 5 -11 0 -14 -3 -6 -6z"/>
<path d="M1878 2178 c-23 -42 -25 -43 -138 -75 -155 -44 -150 -42 -119 -58 21
-11 40 -12 89 -4 34 5 64 8 67 5 2 -2 -11 -25 -30 -50 -46 -59 -87 -147 -87
-185 0 -43 33 -75 68 -66 15 3 57 36 95 73 l67 66 0 -31 c0 -17 7 -39 16 -47
33 -33 77 -16 174 69 39 34 45 38 21 13 -33 -36 -35 -58 -4 -58 17 0 98 56
127 89 29 32 38 25 15 -13 -23 -39 -18 -81 13 -97 26 -14 54 -4 116 42 46 35
52 37 52 19 0 -28 35 -60 65 -60 44 0 131 39 227 103 88 58 97 62 124 51 l28
-12 -31 -15 c-64 -34 -102 -104 -71 -135 18 -18 74 -14 118 8 l39 20 3 -28 c4
-38 41 -40 109 -4 l56 29 -1 -41 c-1 -37 1 -41 22 -39 12 2 78 30 147 64 l125
61 25 -20 25 -20 -32 -11 c-46 -16 -88 -60 -88 -91 0 -56 49 -64 155 -26 l66
24 -16 -25 c-32 -49 2 -67 71 -38 47 19 35 3 -24 -31 -40 -24 -56 -28 -108
-25 -138 5 -284 -95 -217 -150 25 -21 102 -16 153 11 25 12 106 62 180 109 74
48 170 107 212 131 43 25 78 49 78 53 0 20 -36 16 -107 -11 -43 -17 -95 -35
-115 -40 -62 -17 -47 11 27 49 36 19 63 39 62 44 -7 21 -50 15 -154 -20 -60
-20 -128 -38 -153 -41 l-45 -5 27 23 c16 13 57 35 93 48 54 20 65 28 63 45 -2
14 -13 21 -38 26 -42 7 -69 20 -94 48 -11 12 -31 21 -48 21 -27 0 -29 -2 -23
-28 5 -26 2 -30 -37 -46 -118 -48 -168 -65 -168 -57 0 5 32 35 72 67 l71 57
-29 24 c-25 21 -36 23 -79 18 -76 -8 -74 -8 -163 -53 -99 -51 -183 -85 -190
-77 -10 10 40 53 99 85 32 17 59 33 59 36 0 3 -5 14 -11 26 -9 16 -17 19 -46
13 -28 -5 -43 -1 -74 19 -59 40 -113 34 -85 -9 14 -22 12 -24 -67 -73 -125
-76 -227 -104 -227 -63 0 25 22 41 47 35 28 -8 114 37 147 76 21 25 24 35 16
51 -28 51 -118 21 -235 -77 -75 -64 -135 -104 -154 -104 -25 0 -8 42 44 105
30 37 55 71 55 75 0 4 -9 10 -20 13 -13 3 -41 -12 -90 -50 -38 -30 -70 -51
-70 -47 0 4 12 22 26 41 25 33 27 63 3 63 -6 0 -39 -24 -72 -53 -89 -77 -198
-157 -213 -157 -8 0 -14 5 -14 12 0 16 66 133 85 148 19 16 10 30 -18 30 -14
0 -42 -20 -72 -51 -74 -75 -203 -189 -216 -189 -32 0 36 137 109 220 36 41 48
48 114 63 40 9 83 14 95 11 15 -4 29 1 47 20 42 41 28 83 -17 53 -12 -7 -51
-16 -85 -20 -68 -6 -68 -6 -47 46 6 13 2 17 -18 17 -20 0 -31 -10 -49 -42z
m762 -154 c-17 -20 -99 -68 -106 -61 -7 6 88 76 105 77 11 0 11 -3 1 -16z
m569 -88 c-10 -8 -166 -93 -184 -100 -17 -6 -17 -3 5 18 34 34 129 86 159 86
13 0 22 -2 20 -4z m246 -362 c-24 -18 -151 -80 -182 -89 -36 -10 -27 10 17 39
51 34 128 65 160 65 24 0 25 0 5 -15z"/>
<path d="M11 2064 c0 -11 3 -14 6 -6 3 7 2 16 -1 19 -3 4 -6 -2 -5 -13z"/>
<path d="M4090 1990 c0 -5 5 -10 11 -10 5 0 7 5 4 10 -3 6 -8 10 -11 10 -2 0
-4 -4 -4 -10z"/>
<path d="M31 1924 c0 -11 3 -14 6 -6 3 7 2 16 -1 19 -3 4 -6 -2 -5 -13z"/>
<path d="M2620 1630 c0 -35 27 -77 57 -88 52 -19 157 -51 159 -49 1 1 4 13 6
26 3 20 -9 29 -101 77 -57 30 -107 54 -112 54 -5 0 -9 -9 -9 -20z"/>
<path d="M1660 1521 c-25 -10 -61 -27 -80 -39 -42 -26 -66 -28 -78 -6 -7 13
-13 10 -30 -20 -24 -40 -23 -40 43 -37 34 2 171 57 198 79 39 33 8 46 -53 23z"/>
<path d="M545 830 c10 -11 20 -20 23 -20 3 0 -3 9 -13 20 -10 11 -20 20 -23
20 -3 0 3 -9 13 -20z"/>
<path d="M3881 784 c0 -11 3 -14 6 -6 3 7 2 16 -1 19 -3 4 -6 -2 -5 -13z"/>
<path d="M660 705 c30 -30 57 -55 59 -55 3 0 -19 25 -49 55 -30 30 -57 55 -59
55 -3 0 19 -25 49 -55z"/>
<path d="M3754 648 l-29 -33 33 29 c30 28 37 36 29 36 -2 0 -16 -15 -33 -32z"/>
<path d="M770 606 c0 -2 8 -10 18 -17 15 -13 16 -12 3 4 -13 16 -21 21 -21 13z"/>
<path d="M3674 578 l-19 -23 23 19 c12 11 22 21 22 23 0 8 -8 2 -26 -19z"/>
<path d="M3619 533 c-13 -16 -12 -17 4 -4 9 7 17 15 17 17 0 8 -8 3 -21 -13z"/>
<path d="M3560 489 l-35 -30 38 26 c33 24 43 35 34 35 -1 0 -18 -14 -37 -31z"/>
<path d="M3434 404 c-18 -14 -18 -15 4 -4 12 6 22 13 22 15 0 8 -5 6 -26 -11z"/>
<path d="M3349 353 c-13 -17 -13 -17 6 -3 11 8 22 16 24 17 2 2 0 3 -6 3 -6 0
-17 -8 -24 -17z"/>
<path d="M3218 289 c-43 -21 -78 -41 -78 -44 0 -5 159 72 169 81 14 13 -25 -2
-91 -37z"/>
<path d="M3088 233 c-10 -2 -18 -9 -18 -14 0 -6 8 -5 20 1 11 6 20 13 20 15 0
3 -1 4 -2 4 -2 -1 -11 -3 -20 -6z"/>
<path d="M2978 193 c-10 -2 -18 -8 -18 -13 0 -10 38 -1 46 11 5 9 1 10 -28 2z"/>
<path d="M2900 159 c0 -5 5 -7 10 -4 6 3 10 8 10 11 0 2 -4 4 -10 4 -5 0 -10
-5 -10 -11z"/>
<path d="M2788 153 c6 -2 18 -2 25 0 6 3 1 5 -13 5 -14 0 -19 -2 -12 -5z"/>
<path d="M2850 156 c0 -9 30 -14 35 -6 4 6 -3 10 -14 10 -12 0 -21 -2 -21 -4z"/>
<path d="M2725 140 l-30 -8 27 -1 c15 0 30 4 33 9 3 6 5 9 3 9 -2 -1 -16 -5
-33 -9z"/>
<path d="M2658 123 c7 -3 16 -2 19 1 4 3 -2 6 -13 5 -11 0 -14 -3 -6 -6z"/>
<path d="M2583 113 c9 -2 23 -2 30 0 6 3 -1 5 -18 5 -16 0 -22 -2 -12 -5z"/>
<path d="M2270 60 c0 -12 27 -12 55 0 16 7 13 9 -17 9 -21 1 -38 -3 -38 -9z"/>
</g>
</svg>
